<svg width="1494" height="300" viewBox="0 0 1494 300" fill="none" xmlns="http://www.w3.org/2000/svg">
<g clip-path="url(#clip0_24_8)">
<path opacity="0.62" d="M61.1412 237.252L99.0686 190.612C103.029 185.743 110.484 185.743 114.443 190.612L152.371 237.252C155.321 240.881 155.321 246.068 152.371 249.697L114.443 296.337C110.484 301.207 103.029 301.207 99.0686 296.337L61.1412 249.697C58.1912 246.068 58.1912 240.881 61.1412 237.252Z" fill="#2DB1FF"/>
<path d="M120.064 123.197L157.991 76.5574C161.951 71.6882 169.406 71.6882 173.367 76.5574L211.294 123.197C214.244 126.826 214.244 132.014 211.294 135.643L173.367 182.283C169.406 187.152 161.951 187.152 157.991 182.283L120.064 135.643C117.114 132.014 117.114 126.826 120.064 123.197Z" fill="#2DB1FF"/>
<path d="M2.21265 123.197L40.1399 76.5574C44.0999 71.6882 51.5549 71.6882 55.515 76.5574L93.4425 123.197C96.3924 126.826 96.3924 132.014 93.4425 135.643L55.515 182.283C51.5549 187.152 44.0999 187.152 40.1399 182.283L2.21265 135.643C-0.737551 132.014 -0.737551 126.826 2.21265 123.197Z" fill="#2DB1FF"/>
<path d="M61.1412 50.2979L99.0686 3.65239C103.029 -1.21714 110.484 -1.21714 114.443 3.65239L152.371 50.2922C155.321 53.9217 155.321 59.1083 152.371 62.7377L114.443 109.377C110.484 114.247 103.029 114.247 99.0686 109.377L61.1412 62.7435C58.1912 59.1141 58.1912 53.9217 61.1412 50.2979Z" fill="#2DB1FF"/>
<path d="M1439.59 151.561L1494.01 210.482H1461.02L1417.31 159.703V210.482H1392.89V51.9319H1417.31V144.062L1460.16 92.4263H1494.01L1439.59 151.561Z" fill="#0E0E52"/>
<path d="M1336.97 109.566C1340.54 103.567 1345.26 98.9247 1351.11 95.6397C1357.11 92.2116 1364.18 90.4976 1372.32 90.4976V115.779H1366.1C1356.54 115.779 1349.25 118.208 1344.25 123.064C1339.4 127.921 1336.97 136.349 1336.97 148.347V210.481H1312.55V92.4256H1336.97V109.566Z" fill="#0E0E52"/>
<path d="M1229.03 212.409C1217.89 212.409 1207.83 209.91 1198.83 204.911C1189.83 199.769 1182.76 192.626 1177.62 183.485C1172.48 174.2 1169.91 163.488 1169.91 151.346C1169.91 139.348 1172.55 128.707 1177.84 119.422C1183.12 110.138 1190.33 102.996 1199.47 97.9964C1208.61 92.9974 1218.82 90.4976 1230.1 90.4976C1241.39 90.4976 1251.6 92.9974 1260.74 97.9964C1269.88 102.996 1277.09 110.138 1282.38 119.422C1287.66 128.707 1290.3 139.348 1290.3 151.346C1290.3 163.344 1287.59 173.986 1282.16 183.271C1276.73 192.555 1269.31 199.769 1259.88 204.911C1250.6 209.91 1240.31 212.409 1229.03 212.409ZM1229.03 191.198C1235.32 191.198 1241.17 189.698 1246.6 186.699C1252.17 183.699 1256.67 179.199 1260.09 173.201C1263.53 167.201 1265.24 159.916 1265.24 151.346C1265.24 142.776 1263.59 135.563 1260.31 129.706C1257.02 123.707 1252.67 119.208 1247.24 116.208C1241.81 113.209 1235.96 111.709 1229.68 111.709C1223.4 111.709 1217.53 113.209 1212.11 116.208C1206.83 119.208 1202.61 123.707 1199.47 129.706C1196.33 135.563 1194.76 142.776 1194.76 151.346C1194.76 164.059 1197.97 173.915 1204.4 180.914C1210.97 187.77 1219.18 191.198 1229.03 191.198Z" fill="#0E0E52"/>
<path d="M1161.47 92.4263L1124.84 210.481H1099.13L1075.36 123.28L1051.57 210.481H1025.87L989.023 92.4263H1013.87L1038.51 187.342L1063.57 92.4263H1089.06L1113.06 186.914L1137.48 92.4263H1161.47Z" fill="#0E0E52"/>
<path d="M953.622 112.352V177.7C953.622 182.129 954.62 185.342 956.616 187.342C958.762 189.199 962.333 190.127 967.328 190.127H982.326V210.481H963.048C952.048 210.481 943.62 207.911 937.765 202.769C931.91 197.626 928.986 189.27 928.986 177.7V112.352H915.061V92.4263H928.986V63.073H953.622V92.4263H982.326V112.352H953.622Z" fill="#0E0E52"/>
<path d="M902.976 148.561C902.976 152.989 902.687 156.989 902.116 160.559H811.928C812.644 169.987 816.145 177.557 822.427 183.271C828.708 188.984 836.421 191.841 845.563 191.841C858.704 191.841 867.985 186.342 873.413 175.343H899.763C896.192 186.199 889.691 195.126 880.266 202.125C870.985 208.981 859.413 212.409 845.563 212.409C834.281 212.409 824.14 209.91 815.141 204.911C806.287 199.769 799.29 192.626 794.15 183.485C789.149 174.2 786.651 163.488 786.651 151.346C786.651 139.205 789.08 128.564 793.937 119.422C798.932 110.138 805.86 102.996 814.714 97.9964C823.713 92.9974 833.992 90.4976 845.563 90.4976C856.702 90.4976 866.629 92.9258 875.34 97.7824C884.05 102.639 890.833 109.495 895.69 118.351C900.547 127.064 902.976 137.134 902.976 148.561ZM877.48 140.848C877.341 131.849 874.128 124.636 867.841 119.208C861.559 113.78 853.778 111.066 844.491 111.066C836.063 111.066 828.853 113.78 822.853 119.208C816.854 124.493 813.284 131.706 812.142 140.848H877.48Z" fill="#0E0E52"/>
<path d="M717.115 90.4976C726.402 90.4976 734.686 92.4256 741.965 96.2824C749.395 100.139 755.181 105.852 759.322 113.423C763.464 120.993 765.535 130.135 765.535 140.848V210.481H741.325V144.49C741.325 133.92 738.683 125.85 733.399 120.279C728.116 114.566 720.905 111.709 711.762 111.709C702.619 111.709 695.34 114.566 689.912 120.279C684.628 125.85 681.986 133.92 681.986 144.49V210.481H657.563V92.4256H681.986V105.924C685.984 101.067 691.054 97.2822 697.197 94.5683C703.479 91.8545 710.118 90.4976 717.115 90.4976Z" fill="#0E0E52"/>
<path d="M621.291 211.98C616.867 211.98 613.152 210.48 610.153 207.481C607.153 204.481 605.653 200.767 605.653 196.339C605.653 191.911 607.153 188.198 610.153 185.198C613.152 182.198 616.867 180.698 621.291 180.698C625.577 180.698 629.217 182.198 632.216 185.198C635.216 188.198 636.716 191.911 636.716 196.339C636.716 200.767 635.216 204.481 632.216 207.481C629.217 210.48 625.577 211.98 621.291 211.98Z" fill="#2DB1FF"/>
<path d="M559.326 188.628L592.743 92.4263H618.666L573.68 210.481H544.545L499.772 92.4263H525.908L559.326 188.628Z" fill="#0E0E52"/>
<path d="M443.98 212.409C434.697 212.409 426.343 210.767 418.916 207.481C411.632 204.053 405.848 199.482 401.564 193.769C397.279 187.913 394.995 181.414 394.709 174.272H419.987C420.416 179.271 422.772 183.485 427.057 186.913C431.484 190.198 436.982 191.841 443.552 191.841C450.407 191.841 455.691 190.555 459.404 187.984C463.261 185.27 465.188 181.842 465.188 177.7C465.188 173.272 463.046 169.987 458.762 167.844C454.62 165.701 447.979 163.344 438.839 160.774C429.984 158.345 422.772 155.989 417.202 153.703C411.632 151.418 406.777 147.918 402.635 143.205C398.636 138.491 396.637 132.278 396.637 124.564C396.637 118.279 398.494 112.566 402.207 107.424C405.92 102.139 411.204 97.9964 418.059 94.997C425.057 91.997 433.055 90.4976 442.052 90.4976C455.477 90.4976 466.259 93.9256 474.4 100.782C482.683 107.495 487.11 116.708 487.682 128.421H463.26C462.832 123.136 460.69 118.922 456.833 115.779C452.977 112.638 447.765 111.066 441.195 111.066C434.768 111.066 429.842 112.28 426.414 114.709C422.986 117.136 421.272 120.35 421.272 124.35C421.272 127.492 422.415 130.135 424.7 132.278C426.985 134.42 429.77 136.134 433.055 137.42C436.34 138.562 441.195 140.062 447.622 141.919C456.191 144.204 463.189 146.561 468.616 148.989C474.186 151.275 478.97 154.703 482.969 159.274C486.968 163.845 489.039 169.915 489.181 177.485C489.181 184.199 487.325 190.198 483.611 195.483C479.898 200.768 474.614 204.911 467.759 207.91C461.047 210.909 453.12 212.409 443.98 212.409Z" fill="#0E0E52"/>
<path d="M331.447 212.409C322.164 212.409 313.809 210.767 306.382 207.481C299.099 204.053 293.315 199.482 289.03 193.769C284.746 187.913 282.461 181.414 282.175 174.272H307.453C307.882 179.271 310.238 183.485 314.523 186.913C318.95 190.198 324.449 191.841 331.018 191.841C337.873 191.841 343.158 190.555 346.871 187.984C350.727 185.27 352.655 181.842 352.655 177.7C352.655 173.272 350.512 169.987 346.228 167.844C342.086 165.701 335.445 163.344 326.305 160.774C317.45 158.345 310.238 155.989 304.668 153.703C299.099 151.418 294.243 147.918 290.102 143.205C286.102 138.491 284.103 132.278 284.103 124.564C284.103 118.279 285.96 112.566 289.673 107.424C293.386 102.139 298.67 97.9964 305.526 94.997C312.524 91.997 320.521 90.4976 329.518 90.4976C342.943 90.4976 353.726 93.9256 361.866 100.782C370.149 107.495 374.577 116.708 375.148 128.421H350.727C350.298 123.136 348.156 118.922 344.3 115.779C340.444 112.638 335.231 111.066 328.662 111.066C322.235 111.066 317.308 112.28 313.88 114.709C310.453 117.136 308.739 120.35 308.739 124.35C308.739 127.492 309.881 130.135 312.167 132.278C314.451 134.42 317.236 136.134 320.521 137.42C323.806 138.562 328.662 140.062 335.088 141.919C343.657 144.204 350.655 146.561 356.082 148.989C361.652 151.275 366.436 154.703 370.435 159.274C374.434 163.845 376.505 169.915 376.647 177.485C376.647 184.199 374.791 190.198 371.078 195.483C367.364 200.768 362.081 204.911 355.226 207.91C348.513 210.909 340.587 212.409 331.447 212.409Z" fill="#0E0E52"/>
</g>
<defs>
<clipPath id="clip0_24_8">
<rect width="1494" height="300" fill="white"/>
</clipPath>
</defs>
</svg>
