<svg width="1494" height="301" viewBox="0 0 1494 301" fill="none" xmlns="http://www.w3.org/2000/svg">
<g clip-path="url(#clip0_25_42)">
<path opacity="0.62" d="M61.1412 237.752L99.0686 191.112C103.029 186.243 110.484 186.243 114.443 191.112L152.371 237.752C155.321 241.381 155.321 246.568 152.371 250.197L114.443 296.837C110.484 301.707 103.029 301.707 99.0686 296.837L61.1412 250.197C58.1912 246.568 58.1912 241.381 61.1412 237.752Z" fill="#2DB1FF"/>
<path d="M120.064 123.697L157.991 77.0574C161.951 72.1882 169.406 72.1882 173.366 77.0574L211.293 123.697C214.244 127.326 214.244 132.514 211.293 136.143L173.366 182.783C169.406 187.652 161.951 187.652 157.991 182.783L120.064 136.143C117.113 132.514 117.113 127.326 120.064 123.697Z" fill="#2DB1FF"/>
<path d="M2.21265 123.697L40.1399 77.0574C44.0999 72.1882 51.5549 72.1882 55.515 77.0574L93.4425 123.697C96.3924 127.326 96.3924 132.514 93.4425 136.143L55.515 182.783C51.5549 187.652 44.0999 187.652 40.1399 182.783L2.21265 136.143C-0.737551 132.514 -0.737551 127.326 2.21265 123.697Z" fill="#2DB1FF"/>
<path d="M61.1412 50.7979L99.0686 4.15239C103.029 -0.717137 110.484 -0.717137 114.443 4.15239L152.371 50.7922C155.321 54.4217 155.321 59.6083 152.371 63.2377L114.443 109.877C110.484 114.747 103.029 114.747 99.0686 109.877L61.1412 63.2435C58.1912 59.6141 58.1912 54.4217 61.1412 50.7979Z" fill="#2DB1FF"/>
<path d="M1439.59 152.061L1494.01 210.982H1461.02L1417.31 160.203V210.982H1392.89V52.4319H1417.31V144.562L1460.16 92.9263H1494.01L1439.59 152.061Z" fill="white"/>
<path d="M1336.97 110.066C1340.54 104.067 1345.26 99.4247 1351.11 96.1397C1357.11 92.7116 1364.18 90.9976 1372.32 90.9976V116.279H1366.1C1356.54 116.279 1349.25 118.708 1344.25 123.564C1339.4 128.421 1336.97 136.849 1336.97 148.847V210.981H1312.55V92.9256H1336.97V110.066Z" fill="white"/>
<path d="M1229.03 212.909C1217.89 212.909 1207.83 210.41 1198.83 205.411C1189.83 200.269 1182.76 193.126 1177.62 183.985C1172.48 174.7 1169.91 163.988 1169.91 151.846C1169.91 139.848 1172.55 129.207 1177.84 119.922C1183.12 110.638 1190.33 103.496 1199.47 98.4964C1208.61 93.4974 1218.82 90.9976 1230.1 90.9976C1241.39 90.9976 1251.6 93.4974 1260.74 98.4964C1269.88 103.496 1277.09 110.638 1282.38 119.922C1287.66 129.207 1290.3 139.848 1290.3 151.846C1290.3 163.844 1287.59 174.486 1282.16 183.771C1276.73 193.055 1269.31 200.269 1259.88 205.411C1250.6 210.41 1240.31 212.909 1229.03 212.909ZM1229.03 191.698C1235.32 191.698 1241.17 190.198 1246.6 187.199C1252.17 184.199 1256.67 179.699 1260.09 173.701C1263.53 167.701 1265.24 160.416 1265.24 151.846C1265.24 143.276 1263.59 136.063 1260.31 130.206C1257.02 124.207 1252.67 119.708 1247.24 116.708C1241.81 113.709 1235.96 112.209 1229.68 112.209C1223.4 112.209 1217.53 113.709 1212.11 116.708C1206.83 119.708 1202.61 124.207 1199.47 130.206C1196.33 136.063 1194.76 143.276 1194.76 151.846C1194.76 164.559 1197.97 174.415 1204.4 181.414C1210.97 188.27 1219.18 191.698 1229.03 191.698Z" fill="white"/>
<path d="M1161.47 92.9263L1124.84 210.981H1099.14L1075.36 123.78L1051.58 210.981H1025.87L989.023 92.9263H1013.87L1038.51 187.842L1063.57 92.9263H1089.06L1113.06 187.414L1137.48 92.9263H1161.47Z" fill="white"/>
<path d="M953.622 112.852V178.2C953.622 182.629 954.62 185.842 956.616 187.842C958.762 189.699 962.333 190.627 967.328 190.627H982.326V210.981H963.048C952.048 210.981 943.62 208.411 937.765 203.269C931.91 198.126 928.986 189.77 928.986 178.2V112.852H915.061V92.9263H928.986V63.573H953.622V92.9263H982.326V112.852H953.622Z" fill="white"/>
<path d="M902.976 149.061C902.976 153.489 902.687 157.489 902.116 161.059H811.928C812.644 170.487 816.145 178.057 822.427 183.771C828.708 189.484 836.421 192.341 845.563 192.341C858.704 192.341 867.985 186.842 873.413 175.843H899.763C896.192 186.699 889.691 195.626 880.266 202.625C870.985 209.481 859.413 212.909 845.563 212.909C834.281 212.909 824.14 210.41 815.141 205.411C806.287 200.269 799.29 193.126 794.15 183.985C789.149 174.7 786.651 163.988 786.651 151.846C786.651 139.705 789.08 129.064 793.937 119.922C798.932 110.638 805.86 103.496 814.714 98.4964C823.713 93.4974 833.992 90.9976 845.563 90.9976C856.702 90.9976 866.629 93.4258 875.34 98.2824C884.05 103.139 890.833 109.995 895.69 118.851C900.547 127.564 902.976 137.634 902.976 149.061ZM877.48 141.348C877.341 132.349 874.128 125.136 867.841 119.708C861.559 114.28 853.778 111.566 844.491 111.566C836.063 111.566 828.853 114.28 822.853 119.708C816.854 124.993 813.284 132.206 812.142 141.348H877.48Z" fill="white"/>
<path d="M717.115 90.9976C726.402 90.9976 734.686 92.9256 741.965 96.7824C749.395 100.639 755.181 106.352 759.322 113.923C763.464 121.493 765.535 130.635 765.535 141.348V210.981H741.325V144.99C741.325 134.42 738.683 126.35 733.399 120.779C728.116 115.066 720.905 112.209 711.762 112.209C702.619 112.209 695.34 115.066 689.912 120.779C684.628 126.35 681.986 134.42 681.986 144.99V210.981H657.563V92.9256H681.986V106.424C685.984 101.567 691.054 97.7822 697.197 95.0683C703.479 92.3545 710.118 90.9976 717.115 90.9976Z" fill="white"/>
<path d="M621.291 212.48C616.867 212.48 613.152 210.98 610.153 207.981C607.153 204.981 605.653 201.267 605.653 196.839C605.653 192.411 607.153 188.698 610.153 185.698C613.152 182.698 616.867 181.198 621.291 181.198C625.577 181.198 629.217 182.698 632.216 185.698C635.216 188.698 636.716 192.411 636.716 196.839C636.716 201.267 635.216 204.981 632.216 207.981C629.217 210.98 625.577 212.48 621.291 212.48Z" fill="#2DB1FF"/>
<path d="M559.326 189.128L592.743 92.9263H618.666L573.68 210.981H544.545L499.772 92.9263H525.908L559.326 189.128Z" fill="white"/>
<path d="M443.98 212.909C434.697 212.909 426.343 211.267 418.916 207.981C411.632 204.553 405.848 199.982 401.564 194.269C397.279 188.413 394.995 181.914 394.709 174.772H419.987C420.416 179.771 422.772 183.985 427.057 187.413C431.484 190.698 436.982 192.341 443.552 192.341C450.407 192.341 455.691 191.055 459.404 188.484C463.261 185.77 465.188 182.342 465.188 178.2C465.188 173.772 463.046 170.487 458.762 168.344C454.62 166.201 447.979 163.844 438.839 161.274C429.984 158.845 422.772 156.489 417.202 154.203C411.632 151.918 406.777 148.418 402.635 143.705C398.636 138.991 396.637 132.778 396.637 125.064C396.637 118.779 398.494 113.066 402.207 107.924C405.92 102.639 411.204 98.4964 418.059 95.497C425.057 92.497 433.055 90.9976 442.052 90.9976C455.477 90.9976 466.259 94.4256 474.4 101.282C482.683 107.995 487.11 117.208 487.682 128.921H463.26C462.832 123.636 460.69 119.422 456.833 116.279C452.977 113.138 447.765 111.566 441.195 111.566C434.768 111.566 429.842 112.78 426.414 115.209C422.986 117.636 421.272 120.85 421.272 124.85C421.272 127.992 422.415 130.635 424.7 132.778C426.985 134.92 429.77 136.634 433.055 137.92C436.34 139.062 441.195 140.562 447.622 142.419C456.191 144.704 463.189 147.061 468.616 149.489C474.186 151.775 478.97 155.203 482.969 159.774C486.968 164.345 489.039 170.415 489.181 177.985C489.181 184.699 487.325 190.698 483.611 195.983C479.898 201.268 474.614 205.411 467.759 208.41C461.047 211.409 453.12 212.909 443.98 212.909Z" fill="white"/>
<path d="M331.447 212.909C322.164 212.909 313.809 211.267 306.382 207.981C299.099 204.553 293.315 199.982 289.03 194.269C284.746 188.413 282.461 181.914 282.175 174.772H307.453C307.882 179.771 310.238 183.985 314.523 187.413C318.95 190.698 324.449 192.341 331.018 192.341C337.873 192.341 343.158 191.055 346.871 188.484C350.727 185.77 352.655 182.342 352.655 178.2C352.655 173.772 350.512 170.487 346.228 168.344C342.086 166.201 335.445 163.844 326.305 161.274C317.45 158.845 310.238 156.489 304.668 154.203C299.099 151.918 294.243 148.418 290.102 143.705C286.102 138.991 284.103 132.778 284.103 125.064C284.103 118.779 285.96 113.066 289.673 107.924C293.386 102.639 298.67 98.4964 305.526 95.497C312.524 92.497 320.521 90.9976 329.518 90.9976C342.943 90.9976 353.726 94.4256 361.866 101.282C370.149 107.995 374.577 117.208 375.148 128.921H350.727C350.298 123.636 348.156 119.422 344.3 116.279C340.444 113.138 335.231 111.566 328.662 111.566C322.235 111.566 317.308 112.78 313.88 115.209C310.453 117.636 308.739 120.85 308.739 124.85C308.739 127.992 309.881 130.635 312.167 132.778C314.451 134.92 317.236 136.634 320.521 137.92C323.806 139.062 328.662 140.562 335.088 142.419C343.657 144.704 350.655 147.061 356.082 149.489C361.652 151.775 366.436 155.203 370.435 159.774C374.434 164.345 376.505 170.415 376.647 177.985C376.647 184.699 374.791 190.698 371.078 195.983C367.364 201.268 362.081 205.411 355.226 208.41C348.513 211.409 340.587 212.909 331.447 212.909Z" fill="white"/>
</g>
<defs>
<clipPath id="clip0_25_42">
<rect width="1494" height="300" fill="white" transform="translate(0 0.5)"/>
</clipPath>
</defs>
</svg>
